<svg xmlns="http://www.w3.org/2000/svg" width="163.872" height="163.872" fill-rule="evenodd" image-rendering="optimizeQuality" shape-rendering="geometricPrecision" viewBox="0 0 1.707 1.707" xmlns:v="https://vecta.io/nano"><path d="M.858 1.707c-.098 0-.177-.079-.177-.176v-.15c0-.021-.013-.034-.026-.039s-.031-.006-.046.009l-.255.253c-.069.069-.181.069-.251 0s-.069-.181 0-.249l.255-.253c.015-.015.014-.033.009-.046S.349 1.03.328 1.03H.177C.079 1.03 0 .951 0 .853S.079.677.177.677h.151C.349.677.362.664.367.651S.373.62.358.605L.251.499C.182.43.182.319.251.25s.182-.069.251 0l.107.106C.623.371.642.37.655.365S.681.347.681.326v-.15C.681.079.76 0 .858 0s.177.079.177.176v.15c0 .021.013.034.026.039s.031.006.046-.009l.255-.253c.033-.033.078-.052.125-.052s.092.018.125.052.052.078.052.125-.018.091-.052.125l-.3.298c-.003.02.001.027.011.027.098 0 .177.079.177.176s-.079.176-.177.176c-.016.012-.018.02-.011.027l.152.151c.033.033.052.078.052.125s-.018.091-.052.125-.078.052-.125.052-.092-.018-.125-.052l-.107-.106c-.015-.015-.033-.014-.046-.009s-.026.018-.026.039v.15c0 .097-.079.176-.177.176zm-.22-.406c.01 0 .021.002.031.006.03.012.049.04.049.073v.15a.14.14 0 0 0 .14.139.14.14 0 0 0 .14-.139v-.15c0-.033.019-.061.049-.073s.064-.006.087.017l.107.106c.026.026.062.041.099.041s.073-.014.099-.041.041-.061.041-.098-.015-.072-.041-.098l-.152-.151c-.016-.015-.02-.038-.012-.058s.027-.033.049-.033a.14.14 0 0 0 .14-.139.14.14 0 0 0-.14-.139c-.022 0-.041-.013-.049-.033s-.004-.042.012-.058l.3-.298c.026-.026.041-.061.041-.098S1.613.155 1.586.129a.14.14 0 0 0-.198 0l-.255.253c-.023.023-.056.03-.087.017S.998.359.998.326v-.15a.14.14 0 0 0-.14-.139.14.14 0 0 0-.14.139v.15c0 .033-.019.061-.049.073S.605.405.582.382L.476.276a.14.14 0 0 0-.198 0C.223.33.223.419.278.473l.107.106c.023.023.03.056.017.086S.361.714.328.714H.177a.14.14 0 0 0-.14.139.14.14 0 0 0 .14.139h.151c.033 0 .061.019.074.049s.006.063-.017.086l-.255.253c-.055.054-.055.143 0 .197s.143.054.198 0l.255-.253c.015-.015.035-.023.056-.023z"/><path d="M1.054 1.132c-.051 0-.093-.042-.093-.093s.042-.093.093-.093.093.042.093.093-.042.093-.093.093zm0-.148c-.031 0-.056.025-.056.056s.025.056.056.056.056-.025.056-.056-.025-.056-.056-.056zM.643.909a.13.13 0 1 1 .13-.13.13.13 0 0 1-.131.13zm0-.223C.592.686.55.728.55.779s.042.093.093.093S.737.83.737.779.695.686.643.686z"/><path d="M1.035.798C.994.798.961.764.961.723s.033-.074.075-.074.075.033.075.074-.033.074-.075.074zm0-.111c-.021 0-.037.017-.037.037s.017.037.037.037.037-.017.037-.037-.017-.037-.037-.037zm-.472.454c-.019-.01-.021-.022-.015-.03l.063-.083c.006-.008.018-.01.026-.004s.01.018.004.026l-.063.083z"/><path d="M.934.9L.855.838C.847.831.846.819.853.812S.872.803.879.81l.067.058c.008.007.009.018.002.026zm.032.324H.867c-.01 0-.019-.008-.019-.019s.008-.019.019-.019h.099c.01 0 .019.008.019.019s-.008.019-.019.019zM.979.597C.959.584.959.572.967.565l.065-.059c.008-.007.019-.006.026.001s.006.019-.001.026L.992.592zm.616.59c-.062 0-.112-.05-.112-.111s.05-.111.112-.111.112.05.112.111-.05.111-.112.111zm0-.186c-.041 0-.075.033-.075.074s.033.074.075.074.075-.033.075-.074-.033-.074-.075-.074z"/><path d="M.121.241C.06.241.009.191.009.13S.06.018.121.018.233.068.233.13.183.241.121.241zm0-.185C.08.056.047.089.047.13S.08.204.121.204.196.171.196.13.162.056.121.056zm.685 1.019c-.029 0-.053-.023-.053-.052S.777.97.806.97s.053.023.053.052-.024.052-.053.052zm0-.079c-.015 0-.026.012-.026.026s.012.026.026.026.026-.012.026-.026S.821.996.806.996z"/><path d="M.837.656C.808.656.784.632.784.603S.808.551.837.551.89.574.89.603.866.656.837.656zm0-.079C.823.577.811.589.811.603S.822.63.837.63.863.618.863.603.852.577.837.577z"/></svg>