<svg xmlns="http://www.w3.org/2000/svg" width="80" height="30" viewBox="0 0 80 30">
  <defs>
    <style>
      .cyan { fill: #00FFFF; }
      .magenta { fill: #FF00FF; }
      .yellow { fill: #FFFF00; }
      .black { fill: #000000; }
    </style>
  </defs>
  <g>
    <path class="cyan" d="M127.678,121.847a1.459,1.459,0,0,0-1.691-1.429,1.479,1.479,0,0,0-1.208,1.469v11.987a6.15,6.15,0,0,1-6.04,6.176,5.985,5.985,0,0,1-6.171-5.973v-12.19a1.479,1.479,0,0,0-1.208-1.469,1.459,1.459,0,0,0-1.691,1.429v17.106a.844.844,0,0,1-.844.844h-2.968a.844.844,0,0,1-.844-.844V121.918a6.15,6.15,0,0,1,6.04-6.177,5.985,5.985,0,0,1,6.171,5.973v12.2a1.479,1.479,0,0,0,1.208,1.469,1.459,1.459,0,0,0,1.691-1.429V121.918a6.15,6.15,0,0,1,6.04-6.177,5.985,5.985,0,0,1,6.171,5.973v17.238a.844.844,0,0,1-.844.844h-2.968a.844.844,0,0,1-.844-.844Z" transform="translate(-105.013 -110.057)" />
    <path class="magenta" d="M203.394,116.52h2.968a.844.844,0,0,1,.844.844v22.114a.844.844,0,0,1-.844.844h-2.968a.844.844,0,0,1-.844-.844V117.364A.844.844,0,0,1,203.394,116.52Z" transform="translate(-170.637 -110.583)" />
    <path class="yellow" d="M250.189,116.841v17.032a6.15,6.15,0,0,1-6.04,6.176,5.984,5.984,0,0,1-6.171-5.973v-12.19a1.479,1.479,0,0,0-1.208-1.469,1.459,1.459,0,0,0-1.691,1.429v17.106a.844.844,0,0,1-.844.844h-2.967a.844.844,0,0,1-.844-.844V121.918a6.151,6.151,0,0,1,6.04-6.177,5.985,5.985,0,0,1,6.171,5.973v12.2a1.479,1.479,0,0,0,1.208,1.469,1.459,1.459,0,0,0,1.691-1.429V116.839a.844.844,0,0,1,.845-.844l2.967,0A.844.844,0,0,1,250.189,116.841Z" transform="translate(-189.33 -110.057)" />
    <path class="black" d="M315.18,116.52h2.968a.844.844,0,0,1,.844.844V133.13a7.426,7.426,0,0,1-7.337,7.452,7.221,7.221,0,0,1-7.422-7.2V117.364a.844.844,0,0,1,.844-.844h2.968a.844.844,0,0,1,.844.844v15.767a2.724,2.724,0,1,0,5.447.055V117.364A.844.844,0,0,1,315.18,116.52Z" transform="translate(-238.992 -110.583)" />
    <circle class="magenta" cx="2.722" cy="2.722" r="2.722" transform="translate(31.519)" />
  </g>
</svg>
