<svg xmlns="http://www.w3.org/2000/svg" width="80" height="30" xmlns:v="https://vecta.io/nano"><path d="M22.665 11.79a1.46 1.46 0 0 0-1.691-1.429 1.48 1.48 0 0 0-1.208 1.469v11.987a6.15 6.15 0 0 1-6.04 6.176c-1.617.05-3.186-.556-4.348-1.682s-1.82-2.673-1.823-4.291V11.83a1.48 1.48 0 0 0-1.208-1.469 1.46 1.46 0 0 0-1.691 1.429v17.106c0 .466-.378.844-.844.844H.844c-.466 0-.844-.378-.844-.844V11.861a6.15 6.15 0 0 1 6.04-6.177c1.617-.05 3.186.556 4.348 1.682s1.82 2.673 1.823 4.291v12.2a1.48 1.48 0 0 0 1.208 1.469 1.46 1.46 0 0 0 1.691-1.429V11.861a6.15 6.15 0 0 1 6.04-6.177c1.617-.05 3.186.556 4.348 1.682s1.82 2.673 1.823 4.291v17.238c0 .466-.378.844-.844.844h-2.968c-.466 0-.844-.378-.844-.844z" fill="#0ff"/><path d="M32.757 5.937h2.968c.466 0 .844.378.844.844v22.114c0 .466-.378.844-.844.844h-2.968c-.466 0-.844-.378-.844-.844V6.781c0-.224.089-.439.247-.597s.373-.247.597-.247z" fill="#f0f"/><path d="M60.859 6.784v17.032a6.15 6.15 0 0 1-6.04 6.176c-1.617.051-3.186-.556-4.349-1.681s-1.82-2.674-1.822-4.292v-12.19a1.48 1.48 0 0 0-1.208-1.469 1.46 1.46 0 0 0-1.691 1.429v17.106c0 .466-.378.844-.844.844h-2.967c-.466 0-.844-.378-.844-.844V11.861c-.015-3.364 2.676-6.116 6.04-6.177 1.617-.05 3.186.556 4.348 1.682s1.82 2.673 1.823 4.291v12.2a1.48 1.48 0 0 0 1.208 1.469 1.46 1.46 0 0 0 1.691-1.429V6.782c0-.224.089-.439.248-.597s.373-.247.597-.247h2.967c.224 0 .439.09.597.248s.247.374.246.598z" fill="#ff0"/><path d="M76.188 5.937h2.968c.466 0 .844.378.844.844v15.766a7.43 7.43 0 0 1-7.337 7.452 7.22 7.22 0 0 1-7.422-7.2V6.781c0-.466.378-.844.844-.844h2.968c.466 0 .844.378.844.844v15.767c-.026.983.48 1.904 1.325 2.409s1.895.516 2.749.028 1.379-1.398 1.373-2.382V6.781c0-.224.089-.439.247-.597s.373-.247.597-.247z"/><circle cx="34.241" cy="2.722" r="2.722" fill="#f0f"/></svg>