<svg xmlns="http://www.w3.org/2000/svg" height="32" width="32" xmlns:v="https://vecta.io/nano"><path d="M26.648 4.324c-.719-.663-3.63-2.775-10.12-2.803 0 0-7.651-.458-11.378 2.962-2.073 2.073-2.803 5.114-2.882 8.88S2.092 24.185 8.894 26.1h.005l-.005 2.922s-.045 1.184.736 1.422c.94.294 1.495-.606 2.396-1.574.493-.533 1.172-1.314 1.688-1.909 4.655.391 8.229-.504 8.637-.634.94-.306 6.258-.985 7.119-8.042.894-7.284-.431-11.883-2.822-13.961z" fill="#fff"/><path d="M27.648 5.824c-.719-.663-3.63-2.775-10.12-2.803 0 0-7.651-.458-11.378 2.962-2.073 2.073-2.803 5.114-2.882 8.88-.048 2.27-.098 5.732 1.355 8.546.978 1.18 2.338 2.147 4.271 2.691h.005l-.005 2.922s-.045 1.184.736 1.422c.94.294 1.495-.606 2.396-1.574.493-.533 1.172-1.314 1.688-1.909 4.655.391 8.229-.504 8.637-.634.94-.306 6.258-.985 7.119-8.042.662-5.385.107-9.298-1.191-11.814a6.15 6.15 0 0 0-.631-.647z" fill="#a18dc5"/><path d="M9.984 31.001c-.159 0-.326-.025-.503-.081-.904-.275-1.109-1.335-1.086-1.918l.004-2.529c-6.861-2.181-6.706-9.549-6.631-13.122.078-3.707.78-6.334 2.209-8.27a.5.5 0 0 1 .699-.105.5.5 0 0 1 .105.699c-1.301 1.762-1.94 4.208-2.014 7.697-.077 3.64-.22 10.413 6.25 12.243.087.022.168.067.232.131a.5.5 0 0 1 .149.354l-.005 2.922c-.005.186.045.84.382.942.438.14.746-.154 1.453-.956l.431-.48c.489-.528 1.164-1.305 1.676-1.896.104-.121.259-.186.42-.171 4.857.406 8.41-.602 8.443-.612a6.91 6.91 0 0 1 .381-.104c1.545-.394 5.651-1.439 6.393-7.522.803-6.535-.139-11.337-2.652-13.522-.489-.451-3.21-2.652-9.794-2.681-.074-.004-4.462-.246-8.09 1.111a.5.5 0 0 1-.644-.292.5.5 0 0 1 .293-.644c3.831-1.433 8.285-1.184 8.473-1.174 6.925.029 9.903 2.45 10.429 2.935 2.761 2.401 3.822 7.515 2.978 14.389-.825 6.762-5.577 7.972-7.138 8.37-.136.035-.245.062-.322.087-.723.229-4.247.998-8.579.677l-1.533 1.73c-.147.158-.284.313-.415.462-.578.655-1.172 1.33-1.994 1.33z" fill="#455a64"/><path d="M22.735 20.13v.011c-.612 1.076-1.756 2.266-2.934 1.886l-.012-.017c-1.195-.334-4.009-1.784-5.788-3.2-.917-.725-1.756-1.58-2.401-2.401-.583-.73-1.172-1.597-1.744-2.639-1.207-2.181-1.473-3.155-1.473-3.155-.378-1.177.805-2.321 1.887-2.933h.012c.521-.272 1.019-.181 1.353.221l1.002 1.252c.283.385.663 1.002.861 1.348.345.617.13 1.246-.21 1.506l-.68.544c-.345.277-.3.792-.3.792s1.008 3.812 4.774 4.774c0 0 .516.045.793-.3l.544-.679c.26-.34.889-.555 1.506-.21.833.47 1.892 1.201 2.594 1.863.398.324.488.816.216 1.337h0z" fill="#fff"/><path d="M20.258 22.6a2.01 2.01 0 0 1-.61-.096l-.171-.065c-1.376-.443-4.095-1.89-5.786-3.237-.902-.712-1.785-1.595-2.483-2.483-.644-.805-1.246-1.717-1.79-2.707-1.221-2.207-1.505-3.222-1.517-3.264-.461-1.43.854-2.783 2.122-3.5l.144-.065c.679-.302 1.397-.145 1.852.401h0l1.022 1.278c.302.41.698 1.058.89 1.392.482.862.184 1.751-.339 2.152l-.671.537c-.11.089-.117.325-.114.358.008 0 .998 3.465 4.4 4.334.052-.014.211-.044.279-.129l.544-.679c.433-.567 1.401-.747 2.141-.334s1.884 1.173 2.693 1.936c.532.432.678 1.126.372 1.814v.019l-.065.126c-.296.519-1.378 2.212-2.913 2.212zm-.152-1.012c.792.125 1.675-.809 2.159-1.633l.027-.056c.157-.301.127-.543-.088-.718-.639-.602-1.619-1.305-2.524-1.815-.337-.189-.749-.07-.863.079l-.551.688c-.354.442-.903.49-1.123.49l-.104-.004c-4.084-1.038-5.169-4.978-5.213-5.145-.021-.164-.068-.878.47-1.31l.68-.544c.132-.101.322-.45.086-.872l-.828-1.295-.983-1.227c-.192-.231-.438-.256-.738-.099l-.102.053c-.758.455-1.84 1.386-1.551 2.284.008.029.284.987 1.434 3.066.517.941 1.087 1.805 1.697 2.569.653.832 1.477 1.654 2.321 2.321 1.793 1.428 4.565 2.818 5.612 3.111l.182.057z" fill="#455a64"/><path d="M23 13.5a.5.5 0 0 1-.5-.5A5.51 5.51 0 0 0 17 7.5a.5.5 0 1 1 0-1 6.51 6.51 0 0 1 6.5 6.5.5.5 0 0 1-.5.5zm-2 0a.5.5 0 0 1-.5-.5c0-1.93-1.57-3.5-3.5-3.5a.5.5 0 1 1 0-1c2.481 0 4.5 2.019 4.5 4.5a.5.5 0 0 1-.5.5zm-2 0a.5.5 0 0 1-.5-.5 1.5 1.5 0 0 0-1.5-1.5.5.5 0 1 1 0-1c1.378 0 2.5 1.122 2.5 2.5a.5.5 0 0 1-.5.5z" fill="#fff"/><circle cx="6.5" cy="3.5" fill="#455a64" r=".5"/></svg>